<svg width="98" height="44" viewBox="0 0 98 44" fill="none" xmlns="http://www.w3.org/2000/svg">
<path d="M18.01 11.02C19.37 11.02 20.55 11.23 21.55 11.65C22.57 12.05 23.34 12.61 23.86 13.33C24.4 14.03 24.67 14.84 24.67 15.76C24.67 16.28 24.6 16.76 24.46 17.2C23.88 19.22 22.21 20.5 19.45 21.04C20.41 21.32 21.17 21.79 21.73 22.45C22.29 23.09 22.57 23.89 22.57 24.85C22.57 25.29 22.49 25.81 22.33 26.41C21.89 27.97 21 29.13 19.66 29.89C18.34 30.63 16.46 31 14.02 31H1.54C1.12 31 0.8 30.93 0.58 30.79C0.34 30.65 0.22 30.46 0.22 30.22C0.22 30.1 0.25 29.97 0.31 29.83C0.39 29.61 0.52 29.44 0.7 29.32C0.88 29.2 0.99 29.13 1.03 29.11C1.35 28.91 1.61 28.71 1.81 28.51C2.01 28.29 2.18 27.94 2.32 27.46L5.98 14.53C6.06 14.27 6.1 14.02 6.1 13.78C6.1 13.56 6.06 13.38 5.98 13.24C5.92 13.08 5.83 12.9 5.71 12.7C5.53 12.44 5.44 12.23 5.44 12.07C5.44 12.01 5.46 11.9 5.5 11.74C5.58 11.48 5.75 11.3 6.01 11.2C6.29 11.08 6.71 11.02 7.27 11.02H18.01ZM16.66 16.51C16.8 16.07 16.87 15.66 16.87 15.28C16.87 14.24 16.28 13.72 15.1 13.72H13.75L12.16 19.33H13.48C14.32 19.33 14.98 19.13 15.46 18.73C15.96 18.31 16.36 17.57 16.66 16.51ZM14.47 25.33C14.61 24.85 14.68 24.41 14.68 24.01C14.68 22.93 14.06 22.39 12.82 22.39H11.32L9.61 28.3H11.14C12 28.3 12.69 28.09 13.21 27.67C13.73 27.23 14.15 26.45 14.47 25.33ZM35.4323 15.13C38.1523 15.13 40.1523 15.68 41.4323 16.78C42.7323 17.88 43.3823 19.32 43.3823 21.1C43.3823 21.7 43.3023 22.37 43.1423 23.11C42.7623 24.75 42.0523 26.19 41.0123 27.43C39.9723 28.65 38.6923 29.6 37.1723 30.28C35.6723 30.94 34.0423 31.27 32.2823 31.27C29.5023 31.27 27.4423 30.72 26.1023 29.62C24.7823 28.5 24.1223 27.02 24.1223 25.18C24.1223 24.56 24.2023 23.87 24.3623 23.11C24.7423 21.55 25.4623 20.17 26.5223 18.97C27.6023 17.75 28.9123 16.81 30.4523 16.15C32.0123 15.47 33.6723 15.13 35.4323 15.13ZM35.3423 17.8C34.9223 17.8 34.4723 18.18 33.9923 18.94C33.5323 19.68 32.9823 21.09 32.3423 23.17C31.7023 25.25 31.3823 26.71 31.3823 27.55C31.3823 27.99 31.4523 28.29 31.5923 28.45C31.7323 28.59 31.9223 28.66 32.1623 28.66C32.5823 28.7 33.0123 28.34 33.4523 27.58C33.9123 26.82 34.4823 25.34 35.1623 23.14C35.7823 21.2 36.0923 19.79 36.0923 18.91C36.0923 18.49 36.0223 18.2 35.8823 18.04C35.7623 17.88 35.5823 17.8 35.3423 17.8ZM62.0798 26.86C62.0398 26.94 62.0198 27.06 62.0198 27.22C62.0198 27.36 62.0498 27.47 62.1098 27.55C62.1898 27.63 62.2898 27.67 62.4098 27.67C62.6498 27.67 62.8498 27.57 63.0098 27.37C63.1898 27.15 63.3098 27.04 63.3698 27.04C63.4698 27.04 63.5498 27.11 63.6098 27.25C63.6698 27.37 63.6998 27.52 63.6998 27.7C63.7198 28.28 63.5298 28.85 63.1298 29.41C62.7298 29.95 62.1398 30.4 61.3598 30.76C60.5998 31.1 59.6798 31.27 58.5998 31.27C57.2798 31.27 56.2298 30.97 55.4498 30.37C54.6698 29.75 54.2698 28.93 54.2498 27.91C54.2498 27.17 54.4298 26.34 54.7898 25.42L56.4398 21.1C56.5398 20.84 56.5898 20.63 56.5898 20.47C56.5898 20.21 56.4998 20.01 56.3198 19.87C56.1598 19.71 55.9598 19.63 55.7198 19.63C55.2798 19.63 54.8598 19.84 54.4598 20.26C54.0598 20.66 53.7698 21.16 53.5898 21.76L51.7298 27.88C51.6498 28.1 51.6098 28.31 51.6098 28.51C51.6098 28.75 51.6598 28.95 51.7598 29.11C51.8598 29.25 51.9998 29.4 52.1798 29.56C52.3198 29.68 52.4198 29.79 52.4798 29.89C52.5398 29.99 52.5498 30.11 52.5098 30.25C52.4298 30.51 52.2398 30.7 51.9398 30.82C51.6398 30.94 51.1698 31 50.5298 31H43.6898C43.1698 31 42.7998 30.92 42.5798 30.76C42.3398 30.58 42.2498 30.35 42.3098 30.07C42.3898 29.83 42.5998 29.62 42.9398 29.44C43.2398 29.28 43.4898 29.09 43.6898 28.87C43.8898 28.65 44.0598 28.3 44.1998 27.82L46.8698 19.15C46.9098 19.05 46.9298 18.91 46.9298 18.73C46.9298 18.51 46.8798 18.34 46.7798 18.22C46.6998 18.1 46.5598 17.95 46.3598 17.77C46.1598 17.61 46.0198 17.47 45.9398 17.35C45.8598 17.23 45.8498 17.07 45.9098 16.87C46.0298 16.41 46.6598 16.01 47.7998 15.67C48.9398 15.31 50.1298 15.13 51.3698 15.13C52.3698 15.13 53.1598 15.41 53.7398 15.97C54.3198 16.51 54.5798 17.27 54.5198 18.25C55.3398 17.07 56.2098 16.26 57.1298 15.82C58.0498 15.36 59.0498 15.13 60.1298 15.13C61.3498 15.13 62.3298 15.5 63.0698 16.24C63.8298 16.98 64.2098 17.94 64.2098 19.12C64.2098 19.74 64.1098 20.35 63.9098 20.95L62.0798 26.86ZM72.8744 15.13C74.0344 15.13 74.8844 15.35 75.4244 15.79C75.9644 16.23 76.2344 16.83 76.2344 17.59C76.2344 18.05 76.1644 18.49 76.0244 18.91L73.2644 27.88C73.2044 28.12 73.1744 28.33 73.1744 28.51C73.1744 28.77 73.2244 28.98 73.3244 29.14C73.4244 29.28 73.5644 29.42 73.7444 29.56C73.8844 29.7 73.9844 29.82 74.0444 29.92C74.1044 30 74.1144 30.11 74.0744 30.25C73.9744 30.51 73.7744 30.7 73.4744 30.82C73.1744 30.94 72.7144 31 72.0944 31H65.2544C64.7344 31 64.3544 30.92 64.1144 30.76C63.8744 30.58 63.7944 30.35 63.8744 30.07C63.9544 29.83 64.1644 29.62 64.5044 29.44C64.8044 29.28 65.0544 29.09 65.2544 28.87C65.4544 28.65 65.6244 28.3 65.7644 27.82L68.3744 19.15C68.4344 18.97 68.4644 18.82 68.4644 18.7C68.4644 18.48 68.4144 18.31 68.3144 18.19C68.2144 18.05 68.0644 17.91 67.8644 17.77C67.6644 17.61 67.5244 17.47 67.4444 17.35C67.3644 17.23 67.3544 17.07 67.4144 16.87C67.5344 16.41 68.1644 16.01 69.3044 15.67C70.4444 15.31 71.6344 15.13 72.8744 15.13ZM74.8844 8.5C75.6644 8.5 76.3144 8.76 76.8344 9.28C77.3544 9.78 77.6144 10.4 77.6144 11.14C77.6144 11.66 77.4744 12.17 77.1944 12.67C76.9344 13.17 76.5544 13.58 76.0544 13.9C75.5744 14.2 75.0344 14.35 74.4344 14.35C73.6744 14.35 73.0344 14.1 72.5144 13.6C72.0144 13.08 71.7544 12.44 71.7344 11.68C71.7344 11.18 71.8644 10.69 72.1244 10.21C72.3844 9.71 72.7544 9.3 73.2344 8.98C73.7144 8.66 74.2644 8.5 74.8844 8.5ZM93.7607 15.13C94.9007 15.13 95.8107 15.45 96.4907 16.09C97.1907 16.71 97.5407 17.47 97.5407 18.37C97.5407 19.33 97.2507 20.08 96.6707 20.62C96.0907 21.16 95.3307 21.43 94.3907 21.43C93.5507 21.43 92.9007 21.22 92.4407 20.8C91.9807 20.36 91.7607 19.87 91.7807 19.33C91.5807 19.29 91.4107 19.37 91.2707 19.57C91.1307 19.77 90.9807 20.16 90.8207 20.74C90.7207 21.12 90.5307 21.47 90.2507 21.79C91.6107 21.89 92.6207 22.2 93.2807 22.72C93.9407 23.24 94.2707 23.91 94.2707 24.73C94.2707 25.13 94.2007 25.53 94.0607 25.93L93.8207 26.86C93.7807 26.96 93.7607 27.09 93.7607 27.25C93.7607 27.53 93.8907 27.67 94.1507 27.67C94.3907 27.67 94.5907 27.57 94.7507 27.37C94.9307 27.15 95.0507 27.04 95.1107 27.04C95.2107 27.04 95.2907 27.11 95.3507 27.25C95.4107 27.37 95.4407 27.52 95.4407 27.7C95.4607 28.28 95.2807 28.85 94.9007 29.41C94.5407 29.95 93.9807 30.4 93.2207 30.76C92.4807 31.1 91.5807 31.27 90.5207 31.27C89.2407 31.27 88.1707 30.95 87.3107 30.31C86.4707 29.67 86.0507 28.83 86.0507 27.79C86.0507 27.41 86.1307 26.98 86.2907 26.5L86.8607 25C86.9607 24.64 87.0107 24.38 87.0107 24.22C87.0107 23.96 86.9207 23.77 86.7407 23.65C86.5807 23.53 86.3207 23.47 85.9607 23.47H85.3607L84.0107 27.88C83.9507 28.12 83.9207 28.33 83.9207 28.51C83.9207 28.77 83.9707 28.98 84.0707 29.14C84.1707 29.28 84.3107 29.42 84.4907 29.56C84.6307 29.7 84.7307 29.82 84.7907 29.92C84.8507 30 84.8607 30.11 84.8207 30.25C84.7207 30.51 84.5207 30.7 84.2207 30.82C83.9207 30.94 83.4607 31 82.8407 31H76.0007C75.4807 31 75.1007 30.92 74.8607 30.76C74.6207 30.58 74.5407 30.35 74.6207 30.07C74.7007 29.83 74.9107 29.62 75.2507 29.44C75.5507 29.28 75.8007 29.09 76.0007 28.87C76.2007 28.65 76.3707 28.3 76.5107 27.82L81.0707 12.85C81.1307 12.67 81.1607 12.52 81.1607 12.4C81.1607 12.18 81.1007 12 80.9807 11.86C80.8807 11.72 80.7407 11.58 80.5607 11.44C80.3607 11.28 80.2107 11.14 80.1107 11.02C80.0307 10.9 80.0207 10.74 80.0807 10.54C80.2007 10.08 80.8307 9.68 81.9707 9.34C83.1107 9 84.3007 8.83 85.5407 8.83C86.7007 8.83 87.5507 9.05 88.0907 9.49C88.6307 9.91 88.9007 10.5 88.9007 11.26C88.9007 11.72 88.8307 12.16 88.6907 12.58L86.0807 21.1H87.0707C87.4707 21.1 87.7907 20.98 88.0307 20.74C88.2907 20.5 88.4907 20.15 88.6307 19.69C89.1307 18.21 89.7807 17.08 90.5807 16.3C91.3807 15.52 92.4407 15.13 93.7607 15.13Z" fill="#E94560"/>
</svg>
